REM DIRINDEX 1\6,1\2\7,1\2\8,1\2\9,1\3\10,1\3\11,1\4\12,1\4\13,1\4\14,1\5\15,1\5\16,1\5\17
REM DIRNAME folder01,folder02,folder03,folder04,folder05,folder06,folder07,folder08,folder09,folder10,folder11,folder12,folder13,folder14,folder15,folder16,folder17
TITLE ""
FILE "3Q_t_0215-0230.mp3" MP3
  TRACK 01 AUDIO
    TITLE "10:cjc041_2035"
    INDEX 01 00:00:00
  TRACK 02 AUDIO
    TITLE "0:"
    INDEX 01 00:00:68
  TRACK 03 AUDIO
    TITLE "11:cjc041_2036"
    INDEX 01 00:01:48
  TRACK 04 AUDIO
    TITLE "0:"
    INDEX 01 00:05:46
  TRACK 05 AUDIO
    TITLE "10:cjc041_2037"
    INDEX 01 00:06:20
  TRACK 06 AUDIO
    TITLE "0:"
    INDEX 01 00:07:31
  TRACK 07 AUDIO
    TITLE "11:cjc041_2038"
    INDEX 01 00:08:15
  TRACK 08 AUDIO
    TITLE "0:"
    INDEX 01 00:12:20
  TRACK 09 AUDIO
    TITLE "10:cjc041_2039"
    INDEX 01 00:12:65
  TRACK 10 AUDIO
    TITLE "0:"
    INDEX 01 00:13:69
  TRACK 11 AUDIO
    TITLE "11:cjc041_2040"
    INDEX 01 00:14:45
  TRACK 12 AUDIO
    TITLE "0:"
    INDEX 01 00:15:58
  TRACK 13 AUDIO
    TITLE "10:cjc041_2041"
    INDEX 01 00:16:40
  TRACK 14 AUDIO
    TITLE "0:"
    INDEX 01 00:17:53
  TRACK 15 AUDIO
    TITLE "11:cjc041_2042"
    INDEX 01 00:18:33
  TRACK 16 AUDIO
    TITLE "0:"
    INDEX 01 00:19:67
  TRACK 17 AUDIO
    TITLE "10:cjc041_2043"
    INDEX 01 00:20:43
  TRACK 18 AUDIO
    TITLE "0:"
    INDEX 01 00:21:49
  TRACK 19 AUDIO
    TITLE "11:cjc041_2044"
    INDEX 01 00:22:29
  TRACK 20 AUDIO
    TITLE "0:"
    INDEX 01 00:24:55
  TRACK 21 AUDIO
    TITLE "10:cjc041_2045"
    INDEX 01 00:25:39
  TRACK 22 AUDIO
    TITLE "0:"
    INDEX 01 00:26:62
  TRACK 23 AUDIO
    TITLE "11:cjc041_2046"
    INDEX 01 00:27:38
  TRACK 24 AUDIO
    TITLE "0:"
    INDEX 01 00:30:18
  TRACK 25 AUDIO
    TITLE "10:cjc041_2047"
    INDEX 01 00:30:67
  TRACK 26 AUDIO
    TITLE "0:"
    INDEX 01 00:32:03
  TRACK 27 AUDIO
    TITLE "11:cjc041_2048"
    INDEX 01 00:32:58
  TRACK 28 AUDIO
    TITLE "0:"
    INDEX 01 00:35:53
  TRACK 29 AUDIO
    TITLE "10:cjc041_2049"
    INDEX 01 00:36:31
  TRACK 30 AUDIO
    TITLE "0:"
    INDEX 01 00:37:42
  TRACK 31 AUDIO
    TITLE "11:cjc041_2050"
    INDEX 01 00:38:24
  TRACK 32 AUDIO
    TITLE "0:"
    INDEX 01 00:41:14
  TRACK 33 AUDIO
    TITLE "10:cjc041_2051"
    INDEX 01 00:41:67
  TRACK 34 AUDIO
    TITLE "0:"
    INDEX 01 00:42:74
  TRACK 35 AUDIO
    TITLE "11:cjc041_2052"
    INDEX 01 00:43:52
  TRACK 36 AUDIO
    TITLE "0:"
    INDEX 01 00:45:71
  TRACK 37 AUDIO
    TITLE "10:cjc041_2053"
    INDEX 01 00:46:54
  TRACK 38 AUDIO
    TITLE "0:"
    INDEX 01 00:47:64
  TRACK 39 AUDIO
    TITLE "11:cjc041_2054"
    INDEX 01 00:48:44
  TRACK 40 AUDIO
    TITLE "0:"
    INDEX 01 00:49:72
  TRACK 41 AUDIO
    TITLE "10:cjc041_2055"
    INDEX 01 00:50:50
  TRACK 42 AUDIO
    TITLE "0:"
    INDEX 01 00:51:69
  TRACK 43 AUDIO
    TITLE "11:cjc041_2056"
    INDEX 01 00:52:43
  TRACK 44 AUDIO
    TITLE "0:"
    INDEX 01 00:53:68
  TRACK 45 AUDIO
    TITLE "10:cjc041_2057"
    INDEX 01 00:54:48
  TRACK 46 AUDIO
    TITLE "0:"
    INDEX 01 00:55:57
  TRACK 47 AUDIO
    TITLE "11:cjc041_2058"
    INDEX 01 00:56:35
  TRACK 48 AUDIO
    TITLE "0:"
    INDEX 01 00:59:02
  TRACK 49 AUDIO
    TITLE "10:cjc041_2059"
    INDEX 01 00:59:53
  TRACK 50 AUDIO
    TITLE "0:"
    INDEX 01 01:00:68
  TRACK 51 AUDIO
    TITLE "11:cjc041_2060"
    INDEX 01 01:01:48
  TRACK 52 AUDIO
    TITLE "0:"
    INDEX 01 01:05:07
  TRACK 53 AUDIO
    TITLE "10:cjc041_2061"
    INDEX 01 01:05:58
  TRACK 54 AUDIO
    TITLE "0:"
    INDEX 01 01:06:65
  TRACK 55 AUDIO
    TITLE "11:cjc041_2062"
    INDEX 01 01:07:37
  TRACK 56 AUDIO
    TITLE "0:"
    INDEX 01 01:08:58
  TRACK 57 AUDIO
    TITLE "10:cjc041_2063"
    INDEX 01 01:09:36
  TRACK 58 AUDIO
    TITLE "0:"
    INDEX 01 01:10:49
  TRACK 59 AUDIO
    TITLE "11:cjc041_2064"
    INDEX 01 01:11:29
  TRACK 60 AUDIO
    TITLE "0:"
    INDEX 01 01:13:73
  TRACK 61 AUDIO
    TITLE "10:cjc041_2065"
    INDEX 01 01:14:51
  TRACK 62 AUDIO
    TITLE "0:"
    INDEX 01 01:15:54
  TRACK 63 AUDIO
    TITLE "11:cjc041_2066"
    INDEX 01 01:16:36
  TRACK 64 AUDIO
    TITLE "0:"
    INDEX 01 01:18:09
